<svg width="472" height="257" viewBox="0 0 472 257" fill="none" xmlns="http://www.w3.org/2000/svg">
<path d="M239 139L286 182.5L334.75 182.5L383.5 182.5L405 139L405 93.5L359.5 54.5L286 63.5L239 113L202.5 88.5L113 54.5L59 83L59 171L127 188.5L239 139Z" fill="url(#paint0_linear_2063_1010)"/>
<path d="M177.629 70.1436C156.351 57.6287 131.713 51.0342 102.947 59.5166C78.8301 66.6279 62.2137 82.1485 53.6362 105.703C24.8029 184.883 107.286 250.475 178.389 206.91C196.631 195.733 212.48 180.253 231.621 160.76L231.622 160.76C232.149 160.222 233.67 158.696 235.986 158.854C237.117 158.931 237.976 159.389 238.515 159.757C239.03 160.108 239.45 160.515 239.727 160.795C261.609 182.86 284.32 205.882 312.137 215.482C340.446 225.253 367.898 221.631 388.389 208.171C408.526 194.944 422.287 171.992 423.455 141.973L423.5 140.538C424.961 77.7933 356.448 33.5402 296.072 68.1387C277.109 79.0056 260.744 94.825 243.088 112.688L239.54 116.286C239.105 116.727 237.668 118.202 235.443 118.095C234.334 118.041 233.485 117.61 232.95 117.254C232.443 116.917 232.039 116.528 231.782 116.269C216.847 101.213 199.065 82.751 177.629 70.1436ZM97.9038 93.3369C110.544 83.9207 127.394 80.742 145.106 84.8965C159.083 88.1749 171.823 96.0212 183.287 105.268C194.75 114.514 205.212 125.395 214.503 134.941L214.503 134.942C215.057 135.511 216.411 137.09 215.925 139.366C215.72 140.328 215.249 141.003 214.958 141.365C214.674 141.718 214.37 142.001 214.235 142.127L214.235 142.128C202.916 152.691 189.719 167.19 175.007 177.914C160.119 188.767 142.836 196.449 122.727 193.063C95.9687 188.556 76.5152 165.257 76.5747 137.746L76.5747 137.686L76.5767 137.626L76.6118 136.717C77.4565 117.691 85.4351 102.625 97.9038 93.3369ZM311.694 89.626C354.312 69.3082 394.888 99.251 394.744 139.377L394.744 139.469L394.739 139.56C393.751 159.628 385.48 174.76 372.931 183.909C360.435 193.02 344.122 195.887 327.58 192.309C313.258 189.211 300.305 181.419 288.64 172.101C276.98 162.786 266.333 151.718 256.751 141.868C256.125 141.224 254.711 139.468 255.482 137.079C255.774 136.173 256.289 135.575 256.53 135.313C256.753 135.069 257.042 134.809 257.05 134.801C261.183 130.943 265.293 126.87 269.515 122.717C273.72 118.581 278.023 114.377 282.46 110.346C291.324 102.294 300.889 94.7771 311.694 89.626Z" fill="#1D1C1F" stroke="#1D1C1F" stroke-width="8"/>
<path d="M176.109 57.0166C155.35 44.8072 131.57 38.4903 103.794 46.6807C80.5833 53.525 64.7043 68.3652 56.4554 91.0176C28.6274 167.438 108.058 230.771 176.822 188.639C194.706 177.681 210.315 162.462 229.479 142.945C230.018 142.396 232.404 139.89 236.19 140.148C238.035 140.274 239.404 141.02 240.205 141.566C240.964 142.084 241.548 142.657 241.858 142.97C263.868 165.165 286.084 187.604 313.116 196.934C340.63 206.429 367.1 202.853 386.743 189.95C406.018 177.288 419.326 155.255 420.457 126.141L420.501 124.749C421.903 64.3419 355.91 21.5937 297.563 55.0293C277.752 66.3821 260.76 83.2984 241.677 102.678C241.241 103.121 238.962 105.554 235.298 105.378C233.473 105.29 232.104 104.58 231.289 104.039C230.525 103.531 229.951 102.97 229.652 102.669C214.642 87.5383 197.143 69.388 176.109 57.0166ZM96.1117 75.2188C109.549 65.209 127.33 61.9324 145.791 66.2627C160.389 69.6867 173.539 77.8371 185.17 87.2188C195.348 95.4285 204.731 104.895 213.12 113.505L216.654 117.137C217.379 117.882 219.674 120.463 218.859 124.28C218.517 125.88 217.739 126.981 217.295 127.533C216.864 128.069 216.42 128.479 216.282 128.607V128.608C205.228 138.924 191.677 153.762 176.775 164.625C161.564 175.713 143.462 183.884 122.228 180.308C93.9955 175.552 73.512 150.976 73.5746 122.026V121.922L73.5785 121.816L73.6146 120.869C74.4953 101.049 82.8395 85.1058 96.1117 75.2188ZM310.403 71.2051C355.067 49.912 397.896 81.3951 397.744 123.675V123.835L397.735 123.994C396.708 144.846 388.073 160.869 374.699 170.62C361.416 180.304 344.203 183.261 326.946 179.528C311.988 176.293 298.612 168.193 286.768 158.731C274.932 149.277 264.148 138.061 254.601 128.247C253.747 127.369 251.327 124.472 252.627 120.444C253.115 118.935 253.964 117.958 254.321 117.569C254.526 117.346 254.71 117.169 254.81 117.075C254.863 117.025 254.912 116.98 254.941 116.953C254.977 116.919 254.988 116.908 255.003 116.895H255.004C259.101 113.071 263.176 109.032 267.411 104.865C271.616 100.729 275.957 96.4876 280.444 92.4121C289.396 84.2804 299.213 76.5399 310.403 71.2051Z" fill="#F5889B" stroke="#EFA960" stroke-width="14"/>
<path d="M427.499 124.64C429.039 58.7775 357.166 12.5185 294.082 48.6684C273.3 60.5776 255.658 78.2158 236.689 97.4799C235.827 98.3557 235.429 98.2652 234.621 97.4517C204.951 67.5421 161.99 21.9355 101.815 39.6796C76.4906 47.147 58.8935 63.5771 49.878 88.3349C19.7047 171.195 106.257 239.796 180.479 194.32C199.198 182.851 215.365 167.024 234.474 147.563C235.494 146.524 235.954 146.671 236.887 147.611C258.597 169.504 281.967 193.301 310.832 203.264C369.571 223.536 425.88 188.534 427.499 124.64ZM390.744 123.363C388.871 161.408 359.606 179.143 328.425 172.399C301.478 166.571 278.872 142.871 259.619 123.079C258.97 122.412 259.334 122.141 259.779 121.725C276.502 106.116 292.833 87.0484 313.415 77.2362C353.306 58.2189 390.878 86.1083 390.744 123.363ZM80.5744 121.755C81.7598 84.9871 110.767 64.9508 144.193 72.7911C170.492 78.9598 192.966 102.547 211.637 121.732C212.285 122.397 212.036 122.708 211.505 123.203C188.16 144.99 160.611 179.387 123.391 173.118C98.5983 168.942 80.5191 147.347 80.5744 121.755Z" stroke="#1D1C1F" stroke-width="8"/>
<defs>
<linearGradient id="paint0_linear_2063_1010" x1="388" y1="110" x2="43.5" y2="110" gradientUnits="userSpaceOnUse">
<stop stop-color="#EFA960"/>
<stop offset="0.482504" stop-color="#F5889B"/>
<stop offset="1" stop-color="#A081F5"/>
</linearGradient>
</defs>
</svg>
