<svg width="472" height="291" viewBox="0 0 472 291" fill="none" xmlns="http://www.w3.org/2000/svg">
<g clip-path="url(#clip0_2063_940)">
<ellipse cx="236" cy="141.862" rx="124.5" ry="83" transform="rotate(-180 236 141.862)" fill="url(#paint0_linear_2063_940)"/>
<mask id="path-2-inside-1_2063_940" fill="white">
<path d="M236 49.8623C273.495 49.8624 307.727 61.0014 332.756 79.3623C357.78 97.7205 374 123.672 374 153C374 182.328 357.78 208.279 332.756 226.637C307.727 244.998 273.496 256.138 236 256.138C198.504 256.138 164.272 244.998 139.243 226.637C114.219 208.279 98.0001 182.328 98 153C98.0001 123.672 114.219 97.7204 139.243 79.3623C164.272 61.0011 198.504 49.8624 236 49.8623ZM236 64.1279C201.22 64.128 170.018 74.4807 147.683 90.8662C125.343 107.255 112.266 129.306 112.266 153C112.266 176.694 125.343 198.745 147.683 215.134C170.018 231.519 201.22 241.871 236 241.871C270.78 241.871 301.982 231.519 324.317 215.134C346.657 198.745 359.733 176.694 359.733 153C359.733 129.307 346.657 107.255 324.317 90.8662C301.982 74.4808 270.78 64.128 236 64.1279ZM265.905 99.2461C295.603 99.2465 319.678 123.322 319.678 153.02C319.678 160.676 318.078 167.959 315.193 174.552C315.106 174.751 315.017 174.95 314.928 175.148C314.599 175.876 314.252 176.594 313.893 177.304C313.826 177.435 313.759 177.566 313.691 177.696C313.561 177.949 313.428 178.2 313.294 178.45C313.155 178.708 313.017 178.965 312.874 179.221C312.663 179.599 312.447 179.974 312.227 180.347C311.786 181.092 311.328 181.825 310.854 182.546C310.735 182.726 310.615 182.906 310.494 183.085C310.374 183.264 310.252 183.441 310.129 183.618C310.057 183.722 309.982 183.825 309.909 183.929C309.734 184.178 309.558 184.427 309.379 184.673C308.998 185.195 308.608 185.71 308.209 186.218C307.677 186.895 307.129 187.559 306.565 188.21C306.49 188.297 306.413 188.382 306.338 188.468C306.204 188.62 306.071 188.771 305.936 188.922C305.141 189.807 304.319 190.666 303.469 191.496C302.307 192.63 301.093 193.711 299.833 194.737C298.256 196.021 296.606 197.22 294.888 198.321C293.797 199.021 292.679 199.681 291.536 200.302C291.346 200.405 291.155 200.508 290.963 200.609C290.004 201.116 289.027 201.593 288.034 202.042C287.439 202.311 286.837 202.57 286.23 202.818C283.844 203.794 281.37 204.6 278.826 205.228C278.314 205.354 277.8 205.473 277.282 205.585C276.92 205.663 276.557 205.737 276.192 205.808C274.619 206.112 273.022 206.35 271.403 206.515C270.274 206.629 269.134 206.709 267.984 206.753C267.295 206.779 266.601 206.792 265.905 206.792C264.513 206.792 263.133 206.74 261.768 206.636C258.385 206.378 255.091 205.807 251.912 204.953C251.514 205.06 251.115 205.163 250.714 205.261C250.282 205.366 249.849 205.467 249.413 205.562C248.978 205.656 248.54 205.746 248.101 205.83C246.123 206.209 244.107 206.48 242.059 206.636C240.693 206.74 239.313 206.792 237.921 206.792C236.529 206.792 235.149 206.74 233.783 206.636C231.052 206.428 228.379 206.016 225.777 205.415C225.344 205.315 224.912 205.21 224.482 205.1C223.65 204.885 222.825 204.651 222.008 204.398C216.979 205.954 211.635 206.792 206.096 206.792C176.398 206.792 152.323 182.717 152.322 153.02C152.322 123.322 176.398 99.2462 206.096 99.2461C211.635 99.2461 216.979 100.084 222.008 101.64C227.037 100.084 232.381 99.2461 237.921 99.2461C242.761 99.2461 247.451 99.886 251.912 101.085C252.524 100.92 253.14 100.766 253.761 100.623C254.157 100.532 254.554 100.445 254.953 100.362C255.027 100.347 255.101 100.331 255.176 100.316C257.329 99.8804 259.529 99.5737 261.768 99.4033C262.45 99.3514 263.137 99.3114 263.826 99.2852C264.049 99.2767 264.272 99.2694 264.495 99.2637C264.733 99.2575 264.971 99.254 265.21 99.251C265.441 99.248 265.673 99.2461 265.905 99.2461Z"/>
</mask>
<path d="M236 49.8623C273.495 49.8624 307.727 61.0014 332.756 79.3623C357.78 97.7205 374 123.672 374 153C374 182.328 357.78 208.279 332.756 226.637C307.727 244.998 273.496 256.138 236 256.138C198.504 256.138 164.272 244.998 139.243 226.637C114.219 208.279 98.0001 182.328 98 153C98.0001 123.672 114.219 97.7204 139.243 79.3623C164.272 61.0011 198.504 49.8624 236 49.8623ZM236 64.1279C201.22 64.128 170.018 74.4807 147.683 90.8662C125.343 107.255 112.266 129.306 112.266 153C112.266 176.694 125.343 198.745 147.683 215.134C170.018 231.519 201.22 241.871 236 241.871C270.78 241.871 301.982 231.519 324.317 215.134C346.657 198.745 359.733 176.694 359.733 153C359.733 129.307 346.657 107.255 324.317 90.8662C301.982 74.4808 270.78 64.128 236 64.1279ZM265.905 99.2461C295.603 99.2465 319.678 123.322 319.678 153.02C319.678 160.676 318.078 167.959 315.193 174.552C315.106 174.751 315.017 174.95 314.928 175.148C314.599 175.876 314.252 176.594 313.893 177.304C313.826 177.435 313.759 177.566 313.691 177.696C313.561 177.949 313.428 178.2 313.294 178.45C313.155 178.708 313.017 178.965 312.874 179.221C312.663 179.599 312.447 179.974 312.227 180.347C311.786 181.092 311.328 181.825 310.854 182.546C310.735 182.726 310.615 182.906 310.494 183.085C310.374 183.264 310.252 183.441 310.129 183.618C310.057 183.722 309.982 183.825 309.909 183.929C309.734 184.178 309.558 184.427 309.379 184.673C308.998 185.195 308.608 185.71 308.209 186.218C307.677 186.895 307.129 187.559 306.565 188.21C306.49 188.297 306.413 188.382 306.338 188.468C306.204 188.62 306.071 188.771 305.936 188.922C305.141 189.807 304.319 190.666 303.469 191.496C302.307 192.63 301.093 193.711 299.833 194.737C298.256 196.021 296.606 197.22 294.888 198.321C293.797 199.021 292.679 199.681 291.536 200.302C291.346 200.405 291.155 200.508 290.963 200.609C290.004 201.116 289.027 201.593 288.034 202.042C287.439 202.311 286.837 202.57 286.23 202.818C283.844 203.794 281.37 204.6 278.826 205.228C278.314 205.354 277.8 205.473 277.282 205.585C276.92 205.663 276.557 205.737 276.192 205.808C274.619 206.112 273.022 206.35 271.403 206.515C270.274 206.629 269.134 206.709 267.984 206.753C267.295 206.779 266.601 206.792 265.905 206.792C264.513 206.792 263.133 206.74 261.768 206.636C258.385 206.378 255.091 205.807 251.912 204.953C251.514 205.06 251.115 205.163 250.714 205.261C250.282 205.366 249.849 205.467 249.413 205.562C248.978 205.656 248.54 205.746 248.101 205.83C246.123 206.209 244.107 206.48 242.059 206.636C240.693 206.74 239.313 206.792 237.921 206.792C236.529 206.792 235.149 206.74 233.783 206.636C231.052 206.428 228.379 206.016 225.777 205.415C225.344 205.315 224.912 205.21 224.482 205.1C223.65 204.885 222.825 204.651 222.008 204.398C216.979 205.954 211.635 206.792 206.096 206.792C176.398 206.792 152.323 182.717 152.322 153.02C152.322 123.322 176.398 99.2462 206.096 99.2461C211.635 99.2461 216.979 100.084 222.008 101.64C227.037 100.084 232.381 99.2461 237.921 99.2461C242.761 99.2461 247.451 99.886 251.912 101.085C252.524 100.92 253.14 100.766 253.761 100.623C254.157 100.532 254.554 100.445 254.953 100.362C255.027 100.347 255.101 100.331 255.176 100.316C257.329 99.8804 259.529 99.5737 261.768 99.4033C262.45 99.3514 263.137 99.3114 263.826 99.2852C264.049 99.2767 264.272 99.2694 264.495 99.2637C264.733 99.2575 264.971 99.254 265.21 99.251C265.441 99.248 265.673 99.2461 265.905 99.2461Z" fill="#1D1C1F"/>
<path d="M236 49.8623L236 39.8623H236L236 49.8623ZM332.756 79.3623L338.671 71.2993L338.671 71.2993L332.756 79.3623ZM374 153L384 153V153L374 153ZM332.756 226.637L338.671 234.7L338.671 234.7L332.756 226.637ZM236 256.138L236 266.138H236L236 256.138ZM139.243 226.637L133.328 234.7L133.328 234.7L139.243 226.637ZM98 153L88 153V153L98 153ZM139.243 79.3623L133.328 71.2993L133.328 71.2993L139.243 79.3623ZM236 64.1279L236 54.1279H236L236 64.1279ZM147.683 90.8662L141.768 82.8032L141.768 82.8032L147.683 90.8662ZM112.266 153L102.266 153V153L112.266 153ZM147.683 215.134L141.768 223.197L141.768 223.197L147.683 215.134ZM236 241.871L236 251.871H236L236 241.871ZM324.317 215.134L330.232 223.197L330.232 223.197L324.317 215.134ZM359.733 153L369.733 153V153L359.733 153ZM324.317 90.8662L330.232 82.8032L330.232 82.8032L324.317 90.8662ZM265.905 99.2461L265.905 89.2461H265.905V99.2461ZM319.678 153.02L329.678 153.02V153.019L319.678 153.02ZM315.193 174.552L306.032 170.544L306.032 170.544L315.193 174.552ZM314.928 175.148L324.04 179.268L324.04 179.268L314.928 175.148ZM313.893 177.304L304.974 172.781L304.974 172.781L313.893 177.304ZM313.691 177.696L322.573 182.292L322.573 182.292L313.691 177.696ZM313.294 178.45L304.487 173.714L304.487 173.714L313.294 178.45ZM312.874 179.221L321.603 184.1L321.603 184.1L312.874 179.221ZM312.227 180.347L303.618 175.257L303.618 175.257L312.227 180.347ZM310.854 182.546L319.206 188.044L319.206 188.044L310.854 182.546ZM310.494 183.085L302.208 177.487L302.208 177.487L310.494 183.085ZM310.129 183.618L318.347 189.315L318.347 189.315L310.129 183.618ZM309.909 183.929L301.731 178.174L301.731 178.174L309.909 183.929ZM309.379 184.673L317.458 190.566L317.458 190.565L309.379 184.673ZM308.209 186.218L300.346 180.039L300.346 180.039L308.209 186.218ZM306.565 188.21L314.124 194.757L314.124 194.757L306.565 188.21ZM306.338 188.468L298.821 181.872L298.821 181.872L306.338 188.468ZM305.936 188.922L313.378 195.601L313.378 195.601L305.936 188.922ZM303.469 191.496L296.483 184.341L296.482 184.341L303.469 191.496ZM299.833 194.737L306.147 202.492L306.147 202.492L299.833 194.737ZM294.888 198.321L289.491 189.903L289.491 189.903L294.888 198.321ZM291.536 200.302L296.31 209.089L296.31 209.089L291.536 200.302ZM290.963 200.609L286.296 191.765L286.296 191.765L290.963 200.609ZM288.034 202.042L292.154 211.154L292.154 211.154L288.034 202.042ZM286.23 202.818L282.448 193.561L282.448 193.561L286.23 202.818ZM278.826 205.228L281.221 214.937H281.221L278.826 205.228ZM277.282 205.585L275.176 195.809H275.176L277.282 205.585ZM276.192 205.808L278.094 215.625L278.094 215.625L276.192 205.808ZM271.403 206.515L270.393 196.566L271.403 206.515ZM267.984 206.753L268.364 216.746L267.984 206.753ZM265.905 206.792V216.792H265.905L265.905 206.792ZM261.768 206.636L262.526 196.665H262.526L261.768 206.636ZM251.912 204.953L254.508 195.296L251.912 194.598L249.317 195.296L251.912 204.953ZM250.714 205.261L248.343 195.546H248.343L250.714 205.261ZM249.413 205.562L251.54 215.333L249.413 205.562ZM248.101 205.83L246.219 196.009L248.101 205.83ZM242.059 206.636L242.817 216.607H242.817L242.059 206.636ZM237.921 206.792V216.792H237.921L237.921 206.792ZM233.783 206.636L233.024 216.607L233.783 206.636ZM225.777 205.415L228.026 195.671H228.026L225.777 205.415ZM224.482 205.1L221.991 214.784H221.991L224.482 205.1ZM222.008 204.398L224.963 194.845L222.008 193.931L219.052 194.845L222.008 204.398ZM206.096 206.792L206.096 216.792H206.096L206.096 206.792ZM152.322 153.02L142.322 153.019V153.02L152.322 153.02ZM206.096 99.2461L206.096 89.2461H206.096L206.096 99.2461ZM222.008 101.64L219.052 111.193L222.008 112.107L224.963 111.193L222.008 101.64ZM237.921 99.2461L237.921 89.2461H237.921V99.2461ZM251.912 101.085L249.317 110.742L251.912 111.44L254.508 110.742L251.912 101.085ZM253.761 100.623L256.01 110.367L256.01 110.367L253.761 100.623ZM254.953 100.362L252.927 90.5697L252.927 90.5697L254.953 100.362ZM255.176 100.316L257.16 110.118L257.16 110.117L255.176 100.316ZM261.768 99.4033L261.009 89.4321L261.009 89.4321L261.768 99.4033ZM263.826 99.2852L264.206 109.278H264.206L263.826 99.2852ZM264.495 99.2637L264.238 89.267H264.238L264.495 99.2637ZM265.21 99.251L265.337 109.25H265.337L265.21 99.251ZM236 49.8623L236 59.8623C271.592 59.8624 303.7 70.4494 326.841 87.4253L332.756 79.3623L338.671 71.2993C311.754 51.5533 275.398 39.8624 236 39.8623L236 49.8623ZM332.756 79.3623L326.841 87.4253C349.988 104.406 364 127.626 364 153L374 153L384 153C384 119.718 365.573 91.0347 338.671 71.2993L332.756 79.3623ZM374 153L364 153C364 178.374 349.988 201.593 326.841 218.574L332.756 226.637L338.671 234.7C365.573 214.964 384 186.282 384 153L374 153ZM332.756 226.637L326.841 218.574C303.7 235.55 271.592 246.138 236 246.138L236 256.138L236 266.138C275.399 266.138 311.754 254.446 338.671 234.7L332.756 226.637ZM236 256.138L236 246.138C200.408 246.138 168.299 235.55 145.158 218.574L139.243 226.637L133.328 234.7C160.245 254.446 196.601 266.138 236 266.138L236 256.138ZM139.243 226.637L145.158 218.574C122.011 201.593 108 178.374 108 153L98 153L88 153C88.0001 186.282 106.427 214.964 133.328 234.7L139.243 226.637ZM98 153L108 153C108 127.626 122.011 104.406 145.158 87.4253L139.243 79.3623L133.328 71.2993C106.426 91.0348 88.0001 119.718 88 153L98 153ZM139.243 79.3623L145.158 87.4253C168.299 70.4492 200.407 59.8624 236 59.8623L236 49.8623L236 39.8623C196.601 39.8624 160.245 51.553 133.328 71.2993L139.243 79.3623ZM236 64.1279L236 54.1279C199.316 54.128 165.99 65.0332 141.768 82.8032L147.683 90.8662L153.598 98.9292C174.046 83.9281 203.124 74.128 236 74.1279L236 64.1279ZM147.683 90.8662L141.768 82.8032C117.541 100.576 102.266 125.362 102.266 153L112.266 153L122.266 153C122.266 133.251 133.145 113.933 153.598 98.9292L147.683 90.8662ZM112.266 153L102.266 153C102.266 180.638 117.541 205.424 141.768 223.197L147.683 215.134L153.598 207.071C133.145 192.067 122.266 172.749 122.266 153L112.266 153ZM147.683 215.134L141.768 223.197C165.991 240.967 199.316 251.871 236 251.871L236 241.871L236 231.871C203.124 231.871 174.046 222.072 153.598 207.071L147.683 215.134ZM236 241.871L236 251.871C272.684 251.871 306.009 240.967 330.232 223.197L324.317 215.134L318.402 207.071C297.954 222.072 268.876 231.871 236 231.871L236 241.871ZM324.317 215.134L330.232 223.197C354.459 205.424 369.733 180.638 369.733 153L359.733 153L349.733 153C349.733 172.75 338.855 192.067 318.402 207.071L324.317 215.134ZM359.733 153L369.733 153C369.733 125.362 354.459 100.576 330.232 82.8032L324.317 90.8662L318.402 98.9292C338.855 113.933 349.733 133.251 349.733 153L359.733 153ZM324.317 90.8662L330.232 82.8032C306.01 65.0334 272.684 54.128 236 54.1279L236 64.1279L236 74.1279C268.875 74.128 297.954 83.9282 318.402 98.9292L324.317 90.8662ZM265.905 99.2461L265.905 109.246C290.08 109.246 309.678 128.844 309.678 153.02L319.678 153.02L329.678 153.019C329.678 117.799 301.126 89.2466 265.905 89.2461L265.905 99.2461ZM319.678 153.02L309.678 153.019C309.678 159.271 308.373 165.191 306.032 170.544L315.193 174.552L324.355 178.56C327.782 170.727 329.678 162.081 329.678 153.02L319.678 153.02ZM315.193 174.552L306.032 170.544C305.963 170.7 305.891 170.861 305.816 171.029L314.928 175.148L324.04 179.268C324.143 179.039 324.249 178.803 324.355 178.56L315.193 174.552ZM314.928 175.148L305.816 171.029C305.555 171.606 305.274 172.189 304.974 172.781L313.893 177.304L322.812 181.826C323.231 180.999 323.643 180.146 324.04 179.268L314.928 175.148ZM313.893 177.304L304.974 172.781C304.921 172.885 304.866 172.991 304.81 173.101L313.691 177.696L322.573 182.292C322.651 182.14 322.731 181.985 322.812 181.826L313.893 177.304ZM313.691 177.696L304.81 173.101C304.701 173.311 304.593 173.515 304.487 173.714L313.294 178.45L322.101 183.186C322.263 182.885 322.421 182.586 322.573 182.292L313.691 177.696ZM313.294 178.45L304.487 173.714C304.344 173.98 304.242 174.168 304.145 174.341L312.874 179.221L321.603 184.1C321.791 183.763 321.967 183.436 322.101 183.186L313.294 178.45ZM312.874 179.221L304.145 174.341C303.973 174.649 303.798 174.954 303.618 175.257L312.227 180.347L320.835 185.436C321.096 184.994 321.352 184.549 321.603 184.1L312.874 179.221ZM312.227 180.347L303.618 175.257C303.261 175.862 302.888 176.459 302.501 177.048L310.854 182.546L319.206 188.044C319.768 187.19 320.312 186.321 320.835 185.436L312.227 180.347ZM310.854 182.546L302.501 177.048C302.402 177.197 302.305 177.344 302.208 177.487L310.494 183.085L318.78 188.683C318.925 188.469 319.067 188.255 319.206 188.044L310.854 182.546ZM310.494 183.085L302.208 177.487C302.114 177.626 302.015 177.77 301.91 177.921L310.129 183.618L318.347 189.315C318.488 189.113 318.633 188.901 318.78 188.683L310.494 183.085ZM310.129 183.618L301.91 177.921C301.913 177.918 301.907 177.926 301.874 177.973C301.864 177.987 301.834 178.028 301.815 178.055C301.792 178.087 301.763 178.128 301.731 178.174L309.909 183.929L318.087 189.684C318.103 189.662 318.114 189.646 318.165 189.574C318.205 189.518 318.273 189.423 318.347 189.315L310.129 183.618ZM309.909 183.929L301.731 178.174C301.552 178.428 301.422 178.612 301.299 178.78L309.379 184.673L317.458 190.565C317.694 190.242 317.915 189.928 318.087 189.684L309.909 183.929ZM309.379 184.673L301.3 178.78C300.99 179.205 300.672 179.625 300.346 180.039L308.209 186.218L316.072 192.397C316.544 191.795 317.007 191.185 317.458 190.566L309.379 184.673ZM308.209 186.218L300.346 180.039C299.911 180.593 299.464 181.135 299.007 181.663L306.565 188.21L314.124 194.757C314.794 193.984 315.443 193.197 316.072 192.397L308.209 186.218ZM306.565 188.21L299.007 181.663C299.012 181.656 299.009 181.66 298.974 181.699C298.963 181.712 298.934 181.744 298.913 181.769C298.888 181.797 298.856 181.833 298.821 181.872L306.338 188.468L313.855 195.063C313.867 195.049 313.876 195.038 313.929 194.979C313.971 194.932 314.043 194.85 314.124 194.757L306.565 188.21ZM306.338 188.468L298.821 181.872C298.701 182.009 298.594 182.13 298.493 182.243L305.936 188.922L313.378 195.601C313.547 195.413 313.708 195.231 313.855 195.063L306.338 188.468ZM305.936 188.922L298.493 182.243C297.842 182.968 297.172 183.668 296.483 184.341L303.469 191.496L310.455 198.651C311.467 197.663 312.441 196.645 313.378 195.601L305.936 188.922ZM303.469 191.496L296.482 184.341C295.54 185.261 294.551 186.142 293.519 186.983L299.833 194.737L306.147 202.492C307.635 201.28 309.074 200 310.455 198.651L303.469 191.496ZM299.833 194.737L293.519 186.983C292.228 188.034 290.884 189.01 289.491 189.903L294.888 198.321L300.285 206.74C302.328 205.43 304.284 204.009 306.147 202.492L299.833 194.737ZM294.888 198.321L289.491 189.903C288.605 190.47 287.695 191.008 286.763 191.515L291.536 200.302L296.31 209.089C297.662 208.354 298.988 207.571 300.285 206.74L294.888 198.321ZM291.536 200.302L286.763 191.515C286.589 191.609 286.438 191.69 286.296 191.765L290.963 200.609L295.629 209.454C295.872 209.326 296.102 209.202 296.31 209.089L291.536 200.302ZM290.963 200.609L286.296 191.765C285.518 192.176 284.724 192.564 283.914 192.93L288.034 202.042L292.154 211.154C293.33 210.622 294.489 210.056 295.629 209.454L290.963 200.609ZM288.034 202.042L283.915 192.93C283.426 193.151 282.938 193.361 282.448 193.561L286.23 202.818L290.013 212.076C290.737 211.78 291.451 211.472 292.154 211.154L288.034 202.042ZM286.23 202.818L282.448 193.561C280.514 194.352 278.504 195.007 276.431 195.519L278.826 205.228L281.221 214.937C284.236 214.193 287.173 213.236 290.013 212.076L286.23 202.818ZM278.826 205.228L276.431 195.519C276.006 195.624 275.588 195.721 275.176 195.809L277.282 205.585L279.388 215.361C280.012 215.226 280.623 215.084 281.221 214.937L278.826 205.228ZM277.282 205.585L275.176 195.809C274.887 195.872 274.592 195.932 274.29 195.99L276.192 205.808L278.094 215.625C278.522 215.542 278.954 215.454 279.388 215.361L277.282 205.585ZM276.192 205.808L274.29 195.99C273.005 196.239 271.705 196.433 270.393 196.566L271.403 206.515L272.414 216.463C274.339 216.268 276.234 215.985 278.094 215.625L276.192 205.808ZM271.403 206.515L270.393 196.566C269.472 196.659 268.542 196.724 267.604 196.76L267.984 206.753L268.364 216.746C269.725 216.694 271.075 216.599 272.414 216.463L271.403 206.515ZM267.984 206.753L267.604 196.76C267.045 196.781 266.479 196.792 265.905 196.792L265.905 206.792L265.905 216.792C266.724 216.792 267.544 216.777 268.364 216.746L267.984 206.753ZM265.905 206.792V196.792C264.764 196.792 263.637 196.749 262.526 196.665L261.768 206.636L261.009 216.607C262.629 216.73 264.262 216.792 265.905 216.792V206.792ZM261.768 206.636L262.526 196.665C259.771 196.455 257.091 195.99 254.508 195.296L251.912 204.953L249.317 214.61C253.09 215.625 257 216.302 261.009 216.607L261.768 206.636ZM251.912 204.953L249.317 195.296C248.987 195.384 248.663 195.468 248.343 195.546L250.714 205.261L253.085 214.976C253.568 214.858 254.042 214.736 254.507 214.61L251.912 204.953ZM250.714 205.261L248.343 195.546C247.985 195.633 247.633 195.715 247.286 195.79L249.413 205.562L251.54 215.333C252.065 215.218 252.58 215.099 253.085 214.976L250.714 205.261ZM249.413 205.562L247.286 195.79C246.932 195.867 246.576 195.94 246.219 196.009L248.101 205.83L249.982 215.651C250.504 215.552 251.023 215.445 251.54 215.333L249.413 205.562ZM248.101 205.83L246.219 196.009C244.61 196.317 242.969 196.538 241.3 196.665L242.059 206.636L242.817 216.607C245.245 216.422 247.636 216.101 249.982 215.651L248.101 205.83ZM242.059 206.636L241.3 196.665C240.189 196.749 239.063 196.792 237.921 196.792L237.921 206.792L237.921 216.792C239.564 216.792 241.197 216.73 242.817 216.607L242.059 206.636ZM237.921 206.792V196.792C236.779 196.792 235.653 196.749 234.542 196.665L233.783 206.636L233.024 216.607C234.645 216.73 236.278 216.792 237.921 216.792V206.792ZM233.783 206.636L234.542 196.665C232.318 196.495 230.142 196.16 228.026 195.671L225.777 205.415L223.528 215.159C226.616 215.871 229.787 216.361 233.024 216.607L233.783 206.636ZM225.777 205.415L228.026 195.671C227.666 195.588 227.316 195.503 226.974 195.415L224.482 205.1L221.991 214.784C222.508 214.917 223.021 215.042 223.528 215.159L225.777 205.415ZM224.482 205.1L226.974 195.415C226.301 195.242 225.631 195.052 224.963 194.845L222.008 204.398L219.052 213.952C220.019 214.251 220.998 214.529 221.991 214.784L224.482 205.1ZM222.008 204.398L219.052 194.845C214.97 196.108 210.622 196.792 206.096 196.792L206.096 206.792L206.096 216.792C212.649 216.792 218.989 215.8 224.963 213.952L222.008 204.398ZM206.096 206.792L206.096 196.792C181.92 196.792 162.322 177.194 162.322 153.019L152.322 153.02L142.322 153.02C142.323 188.241 170.875 216.792 206.096 216.792L206.096 206.792ZM152.322 153.02L162.322 153.02C162.322 128.844 181.921 109.246 206.096 109.246L206.096 99.2461L206.096 89.2461C170.875 89.2462 142.322 117.799 142.322 153.019L152.322 153.02ZM206.096 99.2461L206.096 109.246C210.622 109.246 214.97 109.93 219.052 111.193L222.008 101.64L224.963 92.0863C218.989 90.2381 212.649 89.2462 206.096 89.2461L206.096 99.2461ZM222.008 101.64L224.963 111.193C229.046 109.93 233.394 109.246 237.921 109.246V99.2461V89.2461C231.368 89.2461 225.028 90.2378 219.052 92.0864L222.008 101.64ZM237.921 99.2461L237.921 109.246C241.876 109.246 245.694 109.769 249.317 110.742L251.912 101.085L254.508 91.4276C249.208 90.0035 243.646 89.2461 237.921 89.2461L237.921 99.2461ZM251.912 101.085L254.508 110.742C255.008 110.608 255.509 110.483 256.01 110.367L253.761 100.623L251.511 90.8793C250.772 91.05 250.04 91.2331 249.317 91.4277L251.912 101.085ZM253.761 100.623L256.01 110.367C256.328 110.293 256.652 110.223 256.979 110.155L254.953 100.362L252.927 90.5697C252.457 90.6671 251.985 90.7701 251.511 90.8793L253.761 100.623ZM254.953 100.362L256.979 110.155C257.08 110.134 257.114 110.127 257.16 110.118L255.176 100.316L253.191 90.5153C253.089 90.536 252.975 90.5599 252.927 90.5697L254.953 100.362ZM255.176 100.316L257.16 110.117C258.909 109.763 260.7 109.513 262.526 109.374L261.768 99.4033L261.009 89.4321C258.359 89.6338 255.749 89.9973 253.191 90.5153L255.176 100.316ZM261.768 99.4033L262.526 109.374C263.091 109.332 263.651 109.299 264.206 109.278L263.826 99.2852L263.446 89.2924C262.623 89.3237 261.81 89.3712 261.009 89.4321L261.768 99.4033ZM263.826 99.2852L264.206 109.278C264.393 109.271 264.575 109.265 264.752 109.26L264.495 99.2637L264.238 89.267C263.969 89.2739 263.705 89.2825 263.446 89.2924L263.826 99.2852ZM264.495 99.2637L264.752 109.26C264.923 109.256 265.108 109.253 265.337 109.25L265.21 99.251L265.083 89.2518C264.835 89.2549 264.543 89.2591 264.238 89.267L264.495 99.2637ZM265.21 99.251L265.337 109.25C265.541 109.248 265.728 109.246 265.905 109.246V99.2461V89.2461C265.618 89.2461 265.342 89.2485 265.083 89.2518L265.21 99.251Z" fill="#1D1C1F" mask="url(#path-2-inside-1_2063_940)"/>
<mask id="path-4-outside-2_2063_940" maskUnits="userSpaceOnUse" x="95" y="31.8623" width="282" height="213" fill="black">
<rect fill="white" x="95" y="31.8623" width="282" height="213"/>
<path d="M236 34.8623C273.495 34.8624 307.727 46.0014 332.756 64.3623C357.78 82.7205 374 108.672 374 138C374 167.328 357.78 193.279 332.756 211.637C307.727 229.998 273.496 241.138 236 241.138C198.504 241.138 164.272 229.998 139.243 211.637C114.219 193.279 98.0001 167.328 98 138C98.0001 108.672 114.219 82.7204 139.243 64.3623C164.272 46.0011 198.504 34.8624 236 34.8623ZM236 49.1279C201.22 49.128 170.018 59.4807 147.683 75.8662C125.343 92.2548 112.266 114.306 112.266 138C112.266 161.694 125.343 183.745 147.683 200.134C170.018 216.519 201.22 226.871 236 226.871C270.78 226.871 301.982 216.519 324.317 200.134C346.657 183.745 359.733 161.694 359.733 138C359.733 114.307 346.657 92.2548 324.317 75.8662C301.982 59.4808 270.78 49.128 236 49.1279ZM265.905 84.2461C295.603 84.2465 319.678 108.322 319.678 138.02C319.678 145.676 318.078 152.959 315.193 159.552C315.106 159.751 315.017 159.95 314.928 160.148C314.599 160.876 314.252 161.594 313.893 162.304C313.826 162.435 313.759 162.566 313.691 162.696C313.561 162.949 313.428 163.2 313.294 163.45C313.155 163.708 313.017 163.965 312.874 164.221C312.663 164.599 312.447 164.974 312.227 165.347C311.786 166.092 311.328 166.825 310.854 167.546C310.735 167.726 310.615 167.906 310.494 168.085C310.374 168.264 310.252 168.441 310.129 168.618C310.057 168.722 309.982 168.825 309.909 168.929C309.734 169.178 309.558 169.427 309.379 169.673C308.998 170.195 308.608 170.71 308.209 171.218C307.677 171.895 307.129 172.559 306.565 173.21C306.49 173.297 306.413 173.382 306.338 173.468C306.204 173.62 306.071 173.771 305.936 173.922C305.141 174.807 304.319 175.666 303.469 176.496C302.307 177.63 301.093 178.711 299.833 179.737C298.256 181.021 296.606 182.22 294.888 183.321C293.797 184.021 292.679 184.681 291.536 185.302C291.346 185.405 291.155 185.508 290.963 185.609C290.004 186.116 289.027 186.593 288.034 187.042C287.439 187.311 286.837 187.57 286.23 187.818C283.844 188.794 281.37 189.6 278.826 190.228C278.314 190.354 277.8 190.473 277.282 190.585C276.92 190.663 276.557 190.737 276.192 190.808C274.619 191.112 273.022 191.35 271.403 191.515C270.274 191.629 269.134 191.709 267.984 191.753C267.295 191.779 266.601 191.792 265.905 191.792C264.513 191.792 263.133 191.74 261.768 191.636C258.385 191.378 255.091 190.807 251.912 189.953C251.514 190.06 251.115 190.163 250.714 190.261C250.282 190.366 249.849 190.467 249.413 190.562C248.978 190.656 248.54 190.746 248.101 190.83C246.123 191.209 244.107 191.48 242.059 191.636C240.693 191.74 239.313 191.792 237.921 191.792C236.529 191.792 235.149 191.74 233.783 191.636C231.052 191.428 228.379 191.016 225.777 190.415C225.344 190.315 224.912 190.21 224.482 190.1C223.65 189.885 222.825 189.651 222.008 189.398C216.979 190.954 211.635 191.792 206.096 191.792C176.398 191.792 152.323 167.717 152.322 138.02C152.322 108.322 176.398 84.2462 206.096 84.2461C211.635 84.2461 216.979 85.0841 222.008 86.6396C227.037 85.0839 232.381 84.2461 237.921 84.2461C242.761 84.2461 247.451 84.886 251.912 86.085C252.524 85.9205 253.14 85.7663 253.761 85.623C254.157 85.5317 254.554 85.4449 254.953 85.3623C255.027 85.347 255.101 85.3315 255.176 85.3164C257.329 84.8804 259.529 84.5737 261.768 84.4033C262.45 84.3514 263.137 84.3114 263.826 84.2852C264.049 84.2767 264.272 84.2694 264.495 84.2637C264.733 84.2575 264.971 84.254 265.21 84.251C265.441 84.248 265.673 84.2461 265.905 84.2461Z"/>
</mask>
<path d="M236 34.8623C273.495 34.8624 307.727 46.0014 332.756 64.3623C357.78 82.7205 374 108.672 374 138C374 167.328 357.78 193.279 332.756 211.637C307.727 229.998 273.496 241.138 236 241.138C198.504 241.138 164.272 229.998 139.243 211.637C114.219 193.279 98.0001 167.328 98 138C98.0001 108.672 114.219 82.7204 139.243 64.3623C164.272 46.0011 198.504 34.8624 236 34.8623ZM236 49.1279C201.22 49.128 170.018 59.4807 147.683 75.8662C125.343 92.2548 112.266 114.306 112.266 138C112.266 161.694 125.343 183.745 147.683 200.134C170.018 216.519 201.22 226.871 236 226.871C270.78 226.871 301.982 216.519 324.317 200.134C346.657 183.745 359.733 161.694 359.733 138C359.733 114.307 346.657 92.2548 324.317 75.8662C301.982 59.4808 270.78 49.128 236 49.1279ZM265.905 84.2461C295.603 84.2465 319.678 108.322 319.678 138.02C319.678 145.676 318.078 152.959 315.193 159.552C315.106 159.751 315.017 159.95 314.928 160.148C314.599 160.876 314.252 161.594 313.893 162.304C313.826 162.435 313.759 162.566 313.691 162.696C313.561 162.949 313.428 163.2 313.294 163.45C313.155 163.708 313.017 163.965 312.874 164.221C312.663 164.599 312.447 164.974 312.227 165.347C311.786 166.092 311.328 166.825 310.854 167.546C310.735 167.726 310.615 167.906 310.494 168.085C310.374 168.264 310.252 168.441 310.129 168.618C310.057 168.722 309.982 168.825 309.909 168.929C309.734 169.178 309.558 169.427 309.379 169.673C308.998 170.195 308.608 170.71 308.209 171.218C307.677 171.895 307.129 172.559 306.565 173.21C306.49 173.297 306.413 173.382 306.338 173.468C306.204 173.62 306.071 173.771 305.936 173.922C305.141 174.807 304.319 175.666 303.469 176.496C302.307 177.63 301.093 178.711 299.833 179.737C298.256 181.021 296.606 182.22 294.888 183.321C293.797 184.021 292.679 184.681 291.536 185.302C291.346 185.405 291.155 185.508 290.963 185.609C290.004 186.116 289.027 186.593 288.034 187.042C287.439 187.311 286.837 187.57 286.23 187.818C283.844 188.794 281.37 189.6 278.826 190.228C278.314 190.354 277.8 190.473 277.282 190.585C276.92 190.663 276.557 190.737 276.192 190.808C274.619 191.112 273.022 191.35 271.403 191.515C270.274 191.629 269.134 191.709 267.984 191.753C267.295 191.779 266.601 191.792 265.905 191.792C264.513 191.792 263.133 191.74 261.768 191.636C258.385 191.378 255.091 190.807 251.912 189.953C251.514 190.06 251.115 190.163 250.714 190.261C250.282 190.366 249.849 190.467 249.413 190.562C248.978 190.656 248.54 190.746 248.101 190.83C246.123 191.209 244.107 191.48 242.059 191.636C240.693 191.74 239.313 191.792 237.921 191.792C236.529 191.792 235.149 191.74 233.783 191.636C231.052 191.428 228.379 191.016 225.777 190.415C225.344 190.315 224.912 190.21 224.482 190.1C223.65 189.885 222.825 189.651 222.008 189.398C216.979 190.954 211.635 191.792 206.096 191.792C176.398 191.792 152.323 167.717 152.322 138.02C152.322 108.322 176.398 84.2462 206.096 84.2461C211.635 84.2461 216.979 85.0841 222.008 86.6396C227.037 85.0839 232.381 84.2461 237.921 84.2461C242.761 84.2461 247.451 84.886 251.912 86.085C252.524 85.9205 253.14 85.7663 253.761 85.623C254.157 85.5317 254.554 85.4449 254.953 85.3623C255.027 85.347 255.101 85.3315 255.176 85.3164C257.329 84.8804 259.529 84.5737 261.768 84.4033C262.45 84.3514 263.137 84.3114 263.826 84.2852C264.049 84.2767 264.272 84.2694 264.495 84.2637C264.733 84.2575 264.971 84.254 265.21 84.251C265.441 84.248 265.673 84.2461 265.905 84.2461Z" fill="#1D1C1F"/>
<path d="M236 34.8623V31.8623V34.8623ZM332.756 64.3623L334.53 61.9434L334.53 61.9434L332.756 64.3623ZM374 138L377 138V138L374 138ZM332.756 211.637L334.53 214.056L332.756 211.637ZM236 241.138V244.138V241.138ZM139.243 211.637L137.469 214.056L137.469 214.056L139.243 211.637ZM98 138L95 138V138L98 138ZM139.243 64.3623L137.469 61.9434L137.469 61.9434L139.243 64.3623ZM236 49.1279V46.1279V49.1279ZM147.683 75.8662L145.908 73.4473L145.908 73.4473L147.683 75.8662ZM112.266 138L109.266 138V138L112.266 138ZM147.683 200.134L145.908 202.553L145.908 202.553L147.683 200.134ZM236 226.871V229.871V226.871ZM324.317 200.134L326.092 202.553L324.317 200.134ZM359.733 138L362.733 138V138L359.733 138ZM324.317 75.8662L326.092 73.4473L326.092 73.4473L324.317 75.8662ZM265.905 84.2461L265.905 81.2461H265.905V84.2461ZM319.678 138.02L322.678 138.02V138.02L319.678 138.02ZM315.193 159.552L312.445 158.349L312.445 158.349L315.193 159.552ZM314.928 160.148L317.661 161.384L317.661 161.384L314.928 160.148ZM313.893 162.304L311.217 160.947V160.947L313.893 162.304ZM313.691 162.696L316.356 164.075L316.356 164.075L313.691 162.696ZM313.294 163.45L310.652 162.029L310.652 162.029L313.294 163.45ZM312.874 164.221L315.493 165.685L315.493 165.685L312.874 164.221ZM312.227 165.347L309.644 163.82L309.644 163.82L312.227 165.347ZM310.854 167.546L313.359 169.195L313.359 169.195L310.854 167.546ZM310.494 168.085L308.008 166.406L308.008 166.406L310.494 168.085ZM310.129 168.618L312.594 170.327L312.594 170.327L310.129 168.618ZM309.909 168.929L307.456 167.202L307.456 167.202L309.909 168.929ZM309.379 169.673L311.803 171.441L311.803 171.441L309.379 169.673ZM308.209 171.218L305.85 169.364L305.85 169.364L308.209 171.218ZM306.565 173.21L308.833 175.174L308.833 175.174L306.565 173.21ZM306.338 173.468L304.083 171.489L304.083 171.489L306.338 173.468ZM305.936 173.922L308.168 175.926L308.168 175.926L305.936 173.922ZM303.469 176.496L301.373 174.35L301.373 174.35L303.469 176.496ZM299.833 179.737L301.727 182.064L301.727 182.064L299.833 179.737ZM294.888 183.321L293.269 180.796L293.269 180.796L294.888 183.321ZM291.536 185.302L292.968 187.938L292.968 187.938L291.536 185.302ZM290.963 185.609L289.563 182.956H289.563L290.963 185.609ZM288.034 187.042L289.27 189.776H289.27L288.034 187.042ZM286.23 187.818L285.096 185.041H285.096L286.23 187.818ZM278.826 190.228L279.545 193.14L278.826 190.228ZM277.282 190.585L276.65 187.652L277.282 190.585ZM276.192 190.808L276.763 193.753L276.192 190.808ZM271.403 191.515L271.1 188.53L271.403 191.515ZM267.984 191.753L268.098 194.751L267.984 191.753ZM265.905 191.792V194.792H265.905L265.905 191.792ZM261.768 191.636L261.995 188.644H261.995L261.768 191.636ZM251.912 189.953L252.691 187.056L251.912 186.847L251.134 187.056L251.912 189.953ZM250.714 190.261L250.003 187.346H250.003L250.714 190.261ZM249.413 190.562L250.051 193.493L249.413 190.562ZM248.101 190.83L247.536 187.884L248.101 190.83ZM242.059 191.636L242.286 194.627L242.059 191.636ZM237.921 191.792V194.792H237.921L237.921 191.792ZM233.783 191.636L233.556 194.627L233.783 191.636ZM225.777 190.415L226.452 187.492L225.777 190.415ZM224.482 190.1L223.735 193.005H223.735L224.482 190.1ZM222.008 189.398L222.894 186.532L222.008 186.258L221.121 186.532L222.008 189.398ZM206.096 191.792L206.096 194.792H206.096L206.096 191.792ZM152.322 138.02L149.322 138.02V138.02L152.322 138.02ZM206.096 84.2461L206.096 81.2461H206.096L206.096 84.2461ZM222.008 86.6396L221.121 89.5056L222.008 89.7799L222.894 89.5056L222.008 86.6396ZM237.921 84.2461L237.921 81.2461H237.921V84.2461ZM251.912 86.085L251.133 88.9822L251.912 89.1914L252.691 88.9821L251.912 86.085ZM253.761 85.623L254.436 88.5462L254.436 88.5462L253.761 85.623ZM254.953 85.3623L254.345 82.4245L254.345 82.4245L254.953 85.3623ZM255.176 85.3164L255.771 88.2567L255.771 88.2567L255.176 85.3164ZM261.768 84.4033L261.54 81.412H261.54L261.768 84.4033ZM263.826 84.2852L263.94 87.283H263.94L263.826 84.2852ZM264.495 84.2637L264.418 81.2647H264.418L264.495 84.2637ZM265.21 84.251L265.248 87.2507H265.248L265.21 84.251ZM236 34.8623V37.8623C272.924 37.8624 306.519 48.8358 330.981 66.7812L332.756 64.3623L334.53 61.9434C308.935 43.167 274.066 31.8624 236 31.8623V34.8623ZM332.756 64.3623L330.981 66.7812C355.443 84.7262 371 109.858 371 138L374 138L377 138C377 107.486 360.118 80.7147 334.53 61.9434L332.756 64.3623ZM374 138L371 138C371 166.142 355.443 191.273 330.981 209.218L332.756 211.637L334.53 214.056C360.118 195.284 377 168.514 377 138L374 138ZM332.756 211.637L330.981 209.218C306.519 227.163 272.925 238.138 236 238.138V241.138V244.138C274.066 244.138 308.935 232.832 334.53 214.056L332.756 211.637ZM236 241.138V238.138C199.075 238.138 165.48 227.163 141.018 209.218L139.243 211.637L137.469 214.056C163.064 232.832 197.933 244.138 236 244.138V241.138ZM139.243 211.637L141.018 209.218C116.557 191.273 101 166.142 101 138L98 138L95 138C95.0001 168.514 111.881 195.284 137.469 214.056L139.243 211.637ZM98 138L101 138C101 109.858 116.556 84.7261 141.018 66.7812L139.243 64.3623L137.469 61.9434C111.881 80.7148 95.0001 107.486 95 138L98 138ZM139.243 64.3623L141.018 66.7812C165.48 48.8356 199.075 37.8624 236 37.8623V34.8623V31.8623C197.934 31.8624 163.064 43.1667 137.469 61.9434L139.243 64.3623ZM236 49.1279V46.1279C200.649 46.128 168.81 56.6464 145.908 73.4473L147.683 75.8662L149.457 78.2851C171.227 62.3149 201.791 52.128 236 52.1279V49.1279ZM147.683 75.8662L145.908 73.4473C123.002 90.2512 109.266 113.123 109.266 138L112.266 138L115.266 138C115.266 115.49 127.684 94.2584 149.457 78.2851L147.683 75.8662ZM112.266 138L109.266 138C109.266 162.877 123.002 185.749 145.908 202.553L147.683 200.134L149.457 197.715C127.684 181.742 115.266 160.51 115.266 138L112.266 138ZM147.683 200.134L145.908 202.553C168.81 219.354 200.649 229.871 236 229.871V226.871V223.871C201.791 223.871 171.227 213.685 149.457 197.715L147.683 200.134ZM236 226.871V229.871C271.351 229.871 303.19 219.354 326.092 202.553L324.317 200.134L322.543 197.715C300.773 213.685 270.209 223.871 236 223.871V226.871ZM324.317 200.134L326.092 202.553C348.998 185.749 362.733 162.877 362.733 138L359.733 138L356.733 138C356.733 160.51 344.316 181.742 322.543 197.715L324.317 200.134ZM359.733 138L362.733 138C362.733 113.123 348.998 90.2512 326.092 73.4473L324.317 75.8662L322.543 78.2851C344.316 94.2583 356.733 115.49 356.733 138L359.733 138ZM324.317 75.8662L326.092 73.4473C303.19 56.6466 271.351 46.128 236 46.1279V49.1279V52.1279C270.208 52.128 300.773 62.315 322.543 78.2851L324.317 75.8662ZM265.905 84.2461L265.905 87.2461C293.946 87.2465 316.678 109.979 316.678 138.02L319.678 138.02L322.678 138.02C322.678 106.665 297.26 81.2465 265.905 81.2461L265.905 84.2461ZM319.678 138.02L316.678 138.02C316.678 145.255 315.166 152.129 312.445 158.349L315.193 159.552L317.942 160.754C320.989 153.789 322.678 146.098 322.678 138.02L319.678 138.02ZM315.193 159.552L312.445 158.349C312.363 158.536 312.28 158.723 312.194 158.913L314.928 160.148L317.661 161.384C317.755 161.177 317.849 160.967 317.942 160.754L315.193 159.552ZM314.928 160.148L312.194 158.913C311.886 159.595 311.559 160.273 311.217 160.947L313.893 162.304L316.568 163.66C316.946 162.915 317.312 162.157 317.661 161.384L314.928 160.148ZM313.893 162.304L311.217 160.947C311.155 161.07 311.091 161.193 311.027 161.318L313.691 162.696L316.356 164.075C316.427 163.938 316.498 163.8 316.568 163.66L313.893 162.304ZM313.691 162.696L311.027 161.318C310.903 161.557 310.778 161.795 310.652 162.029L313.294 163.45L315.936 164.871C316.079 164.606 316.219 164.34 316.356 164.075L313.691 162.696ZM313.294 163.45L310.652 162.029C310.512 162.29 310.384 162.526 310.255 162.757L312.874 164.221L315.493 165.685C315.649 165.405 315.799 165.126 315.936 164.871L313.294 163.45ZM312.874 164.221L310.255 162.757C310.056 163.114 309.852 163.468 309.644 163.82L312.227 165.347L314.809 166.873C315.041 166.48 315.269 166.084 315.493 165.685L312.874 164.221ZM312.227 165.347L309.644 163.82C309.229 164.523 308.796 165.215 308.348 165.896L310.854 167.546L313.359 169.195C313.86 168.434 314.344 167.66 314.809 166.873L312.227 165.347ZM310.854 167.546L308.348 165.896C308.235 166.068 308.122 166.237 308.008 166.406L310.494 168.085L312.98 169.764C313.108 169.575 313.235 169.385 313.359 169.195L310.854 167.546ZM310.494 168.085L308.008 166.406C307.896 166.572 307.781 166.74 307.663 166.909L310.129 168.618L312.594 170.327C312.722 170.143 312.851 169.955 312.98 169.764L310.494 168.085ZM310.129 168.618L307.663 166.909C307.589 167.016 307.573 167.036 307.456 167.202L309.909 168.929L312.363 170.655C312.391 170.614 312.524 170.429 312.594 170.327L310.129 168.618ZM309.909 168.929L307.456 167.202C307.279 167.453 307.118 167.682 306.955 167.905L309.379 169.673L311.803 171.441C311.999 171.171 312.188 170.903 312.363 170.655L309.909 168.929ZM309.379 169.673L306.955 167.905C306.596 168.398 306.227 168.884 305.85 169.364L308.209 171.218L310.568 173.071C310.989 172.536 311.401 171.992 311.803 171.441L309.379 169.673ZM308.209 171.218L305.85 169.364C305.347 170.004 304.83 170.632 304.298 171.246L306.565 173.21L308.833 175.174C309.428 174.487 310.007 173.786 310.568 173.071L308.209 171.218ZM306.565 173.21L304.298 171.246C304.217 171.34 304.213 171.341 304.083 171.489L306.338 173.468L308.593 175.446C308.614 175.422 308.764 175.254 308.833 175.174L306.565 173.21ZM306.338 173.468L304.083 171.489C303.954 171.637 303.828 171.779 303.703 171.918L305.936 173.922L308.168 175.926C308.314 175.764 308.455 175.603 308.593 175.446L306.338 173.468ZM305.936 173.922L303.703 171.918C302.952 172.755 302.175 173.566 301.373 174.35L303.469 176.496L305.565 178.643C306.463 177.765 307.331 176.858 308.168 175.926L305.936 173.922ZM303.469 176.496L301.373 174.35C300.277 175.42 299.131 176.44 297.939 177.411L299.833 179.737L301.727 182.064C303.056 180.982 304.337 179.841 305.565 178.643L303.469 176.496ZM299.833 179.737L297.939 177.411C296.447 178.625 294.889 179.757 293.269 180.796L294.888 183.321L296.507 185.847C298.323 184.683 300.064 183.418 301.727 182.064L299.833 179.737ZM294.888 183.321L293.269 180.796C292.239 181.455 291.184 182.079 290.104 182.666L291.536 185.302L292.968 187.938C294.174 187.283 295.354 186.586 296.507 185.847L294.888 183.321ZM291.536 185.302L290.104 182.666C289.919 182.766 289.74 182.863 289.563 182.956L290.963 185.609L292.363 188.263C292.57 188.153 292.773 188.044 292.968 187.938L291.536 185.302ZM290.963 185.609L289.563 182.956C288.658 183.434 287.736 183.884 286.798 184.308L288.034 187.042L289.27 189.776C290.318 189.302 291.349 188.798 292.363 188.263L290.963 185.609ZM288.034 187.042L286.798 184.308C286.235 184.563 285.667 184.808 285.096 185.041L286.23 187.818L287.365 190.596C288.007 190.333 288.642 190.059 289.27 189.776L288.034 187.042ZM286.23 187.818L285.096 185.041C282.845 185.961 280.51 186.722 278.108 187.315L278.826 190.228L279.545 193.14C282.23 192.478 284.842 191.626 287.365 190.596L286.23 187.818ZM278.826 190.228L278.108 187.315C277.622 187.435 277.136 187.548 276.65 187.652L277.282 190.585L277.914 193.518C278.463 193.399 279.007 193.273 279.545 193.14L278.826 190.228ZM277.282 190.585L276.65 187.652C276.31 187.726 275.967 187.795 275.622 187.862L276.192 190.808L276.763 193.753C277.147 193.679 277.53 193.6 277.914 193.518L277.282 190.585ZM276.192 190.808L275.622 187.862C274.135 188.15 272.627 188.375 271.1 188.53L271.403 191.515L271.706 194.499C273.417 194.326 275.104 194.074 276.763 193.753L276.192 190.808ZM271.403 191.515L271.1 188.53C270.033 188.638 268.956 188.714 267.87 188.755L267.984 191.753L268.098 194.751C269.311 194.705 270.514 194.62 271.706 194.499L271.403 191.515ZM267.984 191.753L267.87 188.755C267.22 188.78 266.565 188.792 265.905 188.792L265.905 191.792L265.905 194.792C266.638 194.792 267.369 194.778 268.098 194.751L267.984 191.753ZM265.905 191.792V188.792C264.588 188.792 263.284 188.742 261.995 188.644L261.768 191.636L261.54 194.627C262.982 194.737 264.438 194.792 265.905 194.792V191.792ZM261.768 191.636L261.995 188.644C258.801 188.401 255.691 187.862 252.691 187.056L251.912 189.953L251.133 192.85C254.49 193.753 257.97 194.355 261.54 194.627L261.768 191.636ZM251.912 189.953L251.134 187.056C250.756 187.157 250.379 187.254 250.003 187.346L250.714 190.261L251.425 193.175C251.851 193.071 252.273 192.963 252.691 192.85L251.912 189.953ZM250.714 190.261L250.003 187.346C249.593 187.446 249.184 187.541 248.775 187.63L249.413 190.562L250.051 193.493C250.513 193.392 250.971 193.286 251.425 193.175L250.714 190.261ZM249.413 190.562L248.775 187.63C248.364 187.72 247.951 187.804 247.536 187.884L248.101 190.83L248.665 193.776C249.129 193.688 249.591 193.593 250.051 193.493L249.413 190.562ZM248.101 190.83L247.536 187.884C245.669 188.241 243.765 188.497 241.831 188.644L242.059 191.636L242.286 194.627C244.448 194.463 246.577 194.177 248.665 193.776L248.101 190.83ZM242.059 191.636L241.831 188.644C240.542 188.742 239.238 188.792 237.921 188.792L237.921 191.792L237.921 194.792C239.388 194.792 240.844 194.737 242.286 194.627L242.059 191.636ZM237.921 191.792V188.792C236.604 188.792 235.3 188.742 234.011 188.644L233.783 191.636L233.556 194.627C234.998 194.737 236.453 194.792 237.921 194.792V191.792ZM233.783 191.636L234.011 188.644C231.432 188.448 228.908 188.059 226.452 187.492L225.777 190.415L225.103 193.338C227.85 193.972 230.673 194.408 233.556 194.627L233.783 191.636ZM225.777 190.415L226.452 187.492C226.04 187.397 225.633 187.298 225.23 187.194L224.482 190.1L223.735 193.005C224.191 193.122 224.647 193.233 225.103 193.338L225.777 190.415ZM224.482 190.1L225.23 187.194C224.445 186.992 223.666 186.771 222.894 186.532L222.008 189.398L221.121 192.264C221.983 192.531 222.854 192.778 223.735 193.005L224.482 190.1ZM222.008 189.398L221.121 186.532C216.376 188 211.331 188.792 206.096 188.792L206.096 191.792L206.096 194.792C211.939 194.792 217.582 193.908 222.894 192.264L222.008 189.398ZM206.096 191.792L206.096 188.792C178.055 188.792 155.323 166.061 155.322 138.02L152.322 138.02L149.322 138.02C149.323 169.374 174.741 194.792 206.096 194.792L206.096 191.792ZM152.322 138.02L155.322 138.02C155.322 109.978 178.055 87.2462 206.096 87.2461L206.096 84.2461L206.096 81.2461C174.741 81.2462 149.322 106.665 149.322 138.02L152.322 138.02ZM206.096 84.2461L206.096 87.2461C211.331 87.2461 216.377 88.0379 221.121 89.5056L222.008 86.6396L222.894 83.7737C217.582 82.1303 211.939 81.2461 206.096 81.2461L206.096 84.2461ZM222.008 86.6396L222.894 89.5056C227.639 88.0377 232.685 87.2461 237.921 87.2461V84.2461V81.2461C232.077 81.2461 226.434 82.1301 221.121 83.7737L222.008 86.6396ZM237.921 84.2461L237.921 87.2461C242.495 87.2461 246.924 87.8508 251.133 88.9822L251.912 86.085L252.691 83.1878C247.978 81.9213 243.026 81.2461 237.921 81.2461L237.921 84.2461ZM251.912 86.085L252.691 88.9821C253.269 88.8267 253.851 88.6812 254.436 88.5462L253.761 85.623L253.086 82.6999C252.43 82.8514 251.779 83.0143 251.133 83.1878L251.912 86.085ZM253.761 85.623L254.436 88.5462C254.808 88.4602 255.183 88.3782 255.561 88.3001L254.953 85.3623L254.345 82.4245C253.925 82.5115 253.505 82.6032 253.086 82.6999L253.761 85.623ZM254.953 85.3623L255.561 88.3001C255.643 88.2831 255.705 88.2701 255.771 88.2567L255.176 85.3164L254.58 82.3761C254.498 82.3928 254.411 82.4108 254.345 82.4245L254.953 85.3623ZM255.176 85.3164L255.771 88.2567C257.803 87.8453 259.88 87.5556 261.995 87.3947L261.768 84.4033L261.54 81.412C259.178 81.5917 256.855 81.9155 254.58 82.3761L255.176 85.3164ZM261.768 84.4033L261.995 87.3947C262.642 87.3454 263.291 87.3077 263.94 87.283L263.826 84.2852L263.712 81.2873C262.982 81.3151 262.258 81.3573 261.54 81.412L261.768 84.4033ZM263.826 84.2852L263.94 87.283C264.152 87.2749 264.363 87.2681 264.572 87.2627L264.495 84.2637L264.418 81.2647C264.181 81.2708 263.946 81.2785 263.712 81.2873L263.826 84.2852ZM264.495 84.2637L264.572 87.2627C264.79 87.2571 265.012 87.2537 265.248 87.2507L265.21 84.251L265.172 81.2512C264.93 81.2543 264.676 81.258 264.418 81.2647L264.495 84.2637ZM265.21 84.251L265.248 87.2507C265.471 87.2479 265.69 87.2461 265.905 87.2461V84.2461V81.2461C265.657 81.2461 265.412 81.2482 265.172 81.2512L265.21 84.251Z" fill="#1D1C1F" mask="url(#path-4-outside-2_2063_940)"/>
<circle cx="265.905" cy="137.497" r="46.6402" fill="#A081F5" stroke="#1D1C1F" stroke-width="14.2664"/>
<circle cx="265.905" cy="137.497" r="46.6402" stroke="#1D1C1F" stroke-width="14.2664"/>
<circle cx="265.905" cy="137.497" r="46.6402" stroke="#EFA960" stroke-width="8.77932"/>
<circle cx="265.905" cy="137.497" r="46.6402" stroke="#F5889B" stroke-width="4.38966"/>
<circle cx="237.92" cy="137.497" r="46.6402" fill="#F5889B" stroke="#1D1C1F" stroke-width="14.2664"/>
<circle cx="237.92" cy="137.497" r="46.6402" stroke="#1D1C1F" stroke-width="14.2664"/>
<circle cx="237.92" cy="137.497" r="46.6402" stroke="#EFA960" stroke-width="8.77932"/>
<circle cx="237.92" cy="137.497" r="46.6402" stroke="#F5889B" stroke-width="4.38966"/>
<circle cx="206.095" cy="137.497" r="46.6402" fill="#EFA960"/>
<circle cx="206.095" cy="137.497" r="46.6402" stroke="#1D1C1F" stroke-width="14.2664"/>
<circle cx="206.095" cy="137.497" r="46.6402" stroke="#EFA960" stroke-width="8.77932"/>
<circle cx="206.095" cy="137.497" r="46.6402" stroke="#F5889B" stroke-width="4.38966"/>
<ellipse cx="236" cy="137.477" rx="130.867" ry="96.0047" stroke="#1D1C1F" stroke-width="14.2664"/>
<ellipse cx="236" cy="137.477" rx="130.867" ry="96.0047" stroke="#EFA960" stroke-width="8.77932"/>
<ellipse cx="236" cy="137.477" rx="130.867" ry="96.0047" stroke="#F5889B" stroke-width="4.38966"/>
</g>
<defs>
<linearGradient id="paint0_linear_2063_940" x1="123.734" y1="156.109" x2="371.655" y2="156.109" gradientUnits="userSpaceOnUse">
<stop stop-color="#EFA960"/>
<stop offset="0.482504" stop-color="#F5889B"/>
<stop offset="1" stop-color="#A081F5"/>
</linearGradient>
<clipPath id="clip0_2063_940">
<rect width="472" height="291" fill="white"/>
</clipPath>
</defs>
</svg>
