<svg width="414" height="270" viewBox="0 0 414 270" fill="none" xmlns="http://www.w3.org/2000/svg">
<g clip-path="url(#clip0_2063_925)">
<path d="M201.022 85.2568C226.676 119.953 225.785 122.807 264.022 123.757C302.363 124.709 316.998 64.8888 349.049 90.6441C366.77 104.884 374.336 123.505 374.336 149.412C374.336 193.257 360.022 201.257 343.022 212.257C336.966 216.176 316.022 220.063 305.022 222.414C290.442 225.53 263.7 222.353 260.938 222.414C247.022 222.722 239.022 225.108 229.022 219.757C219.022 214.406 205.59 202.899 197.522 193.257C179.517 171.74 171.637 164.741 150.522 161.757C111.844 156.29 118.009 246.225 82.1677 227.226C62.7128 216.913 55.1122 199.661 48.6843 174.947C31.4264 108.591 113.041 38.3326 171.522 62.2568C182.522 66.7568 195.117 77.2704 201.022 85.2568Z" fill="url(#paint0_linear_2063_925)"/>
<path d="M31.9765 180.661C32.6881 179.129 39.5213 169.774 46.4964 163.427C50.9893 159.339 56.6646 159.286 60.9279 159.913C65.6762 160.612 75.5954 179.042 82.7285 188.876C83.5024 189.943 85.0493 190.039 86.6788 189.757C93.7703 188.529 96.4416 182.027 99.137 175.449C103.218 165.489 101.072 146.242 98.0608 135.323C92.1204 113.785 91.5582 97.424 98.8452 83.9807C103.91 74.6365 108.88 64.9123 115.664 58.2247C121.664 52.3086 135.355 57.7827 137.696 59.3822C140.715 61.4446 141.548 64.8834 142.086 67.0537C143.74 73.7289 138.957 91.6159 133.732 112.366C131.555 121.013 129.733 125.68 128.328 133.568C126.922 141.457 125.833 152.384 125.651 163.222C125.294 184.48 127.478 196.922 128.613 200.567C133.08 214.911 158.667 232.652 165.9 235.884C168.693 237.132 171.932 235.853 174.957 235.004C178.328 234.058 180.954 231.584 182.793 228.612C186.658 222.366 181.841 209.663 170.632 188.505C160.95 170.229 155.1 161.716 154.69 148.444C154.174 131.729 159.203 125.56 167.159 115.74C168.954 113.524 170.064 112.853 171.08 112.409C173.001 111.571 175.518 112.36 178.11 113.861C180.812 115.425 181.75 118.674 182.081 122.242C183.451 137.021 176.292 144.982 177.03 150.232C178.219 158.7 187.368 166.469 191.111 168.511C195.296 170.795 200.638 169.192 202.966 166.61C207.244 161.864 210.556 154.623 210.138 141.943C209.536 123.729 197.623 106.78 198.46 97.424C199.769 82.7964 209.468 68.6825 214.474 61.9975C218.425 56.7201 224.482 54.7347 231.167 53.8003C233.861 53.4239 236.433 54.8338 238.925 56.6198C243.967 60.2329 245.736 67.2217 250.362 88.9052C255.024 110.757 250.753 122.395 247.237 134.379C244.176 144.816 238.038 163.949 234.394 177.301C228.903 197.416 228.573 205.788 228.941 208.303C230.194 216.883 238.029 223.648 242.007 226.321C243.77 227.507 246.025 227.494 248.092 227.402C253.187 227.176 257.878 221.28 262.554 214.839C269.186 205.704 268.783 198.071 268.036 181.242C267.697 173.6 266.725 165.539 267.333 154.617C268.101 140.808 270.465 131.383 272.112 128.167C276.369 119.856 287.214 112.871 293.324 111.949C297.204 111.365 300.853 115.274 304.147 118.284C307.607 121.445 308.831 125.521 309.399 128.67C310.518 134.872 302.11 146.451 296.098 157.49C285.552 176.851 289.34 185.039 291.104 189.652C291.902 191.74 294.99 192.264 297.773 192.654C302.283 193.287 306.835 189.828 310.409 185.894C315.832 179.925 316.876 165.047 319.504 158.145C322.574 150.083 334.673 146.685 337.133 146.552C343.429 146.21 350.48 156.885 355.13 160.604C360.066 161.487 365.852 158.849 371.383 154.935C373.67 153.144 374.902 151.749 376.172 150.312" stroke="#1D1C1F" stroke-width="23.7105" stroke-linecap="round"/>
<path d="M31.9765 169.596C32.6881 168.065 39.5213 158.709 46.4964 152.363C50.9893 148.275 56.6646 148.221 60.9279 148.849C65.6762 149.547 75.5954 167.977 82.7285 177.811C83.5024 178.878 85.0493 178.974 86.6788 178.692C93.7703 177.464 96.4416 170.962 99.137 164.384C103.218 154.425 101.072 135.177 98.0608 124.258C92.1204 102.72 91.5582 86.3592 98.8452 72.9159C103.91 63.5717 108.88 53.8475 115.664 47.1599C121.664 41.2438 135.355 46.7179 137.696 48.3174C140.715 50.3798 141.548 53.8186 142.086 55.9889C143.74 62.6641 138.957 80.5511 133.732 101.301C131.555 109.949 129.733 114.615 128.328 122.504C126.922 130.392 125.833 141.319 125.651 152.157C125.294 173.415 127.478 185.858 128.613 189.502C133.08 203.846 158.667 221.587 165.9 224.819C168.693 226.067 171.932 224.789 174.957 223.939C178.328 222.993 180.954 220.52 182.793 217.547C186.658 211.301 181.841 198.598 170.632 177.44C160.95 159.165 155.1 150.651 154.69 137.379C154.174 120.664 159.203 114.495 167.159 104.675C168.954 102.46 170.064 101.788 171.08 101.345C173.001 100.506 175.518 101.295 178.11 102.796C180.812 104.36 181.75 107.609 182.081 111.177C183.451 125.956 176.292 133.917 177.03 139.167C178.219 147.635 187.368 155.404 191.111 157.446C195.296 159.731 200.638 158.127 202.966 155.545C207.244 150.799 210.556 143.558 210.138 130.878C209.536 112.665 197.623 95.7151 198.46 86.3592C199.769 71.7315 209.468 57.6177 214.474 50.9327C218.425 45.6553 224.482 43.6699 231.167 42.7355C233.861 42.359 236.433 43.769 238.925 45.555C243.967 49.1681 245.736 56.1569 250.362 77.8404C255.024 99.6923 250.753 111.33 247.237 123.314C244.176 133.751 238.038 152.884 234.394 166.236C228.903 186.351 228.573 194.723 228.941 197.238C230.194 205.818 238.029 212.583 242.007 215.256C243.77 216.442 246.025 216.429 248.092 216.338C253.187 216.111 257.878 210.215 262.554 203.774C269.186 194.639 268.783 187.006 268.036 170.177C267.697 162.535 266.725 154.475 267.333 143.553C268.101 129.743 270.465 120.319 272.112 117.102C276.369 108.791 287.214 101.806 293.324 100.885C297.204 100.3 300.853 104.21 304.147 107.219C307.607 110.381 308.831 114.457 309.399 117.605C310.518 123.808 302.11 135.387 296.098 146.425C285.552 165.786 289.34 173.974 291.104 178.587C291.902 180.675 294.99 181.199 297.773 181.59C302.283 182.222 306.835 178.763 310.409 174.829C315.832 168.86 316.876 153.982 319.504 147.081C322.574 139.019 334.673 135.621 337.133 135.487C343.429 135.145 350.48 145.82 355.13 149.54C360.066 150.422 365.852 147.784 371.383 143.87C373.67 142.079 374.902 140.684 376.172 139.247" stroke="#1D1C1F" stroke-width="23.7105" stroke-linecap="round"/>
<path d="M31.9764 169.596C32.688 168.065 39.5212 158.709 46.4963 152.363C50.9893 148.275 56.6645 148.221 60.9278 148.849C65.6762 149.547 75.5953 167.977 82.7284 177.811C83.5024 178.878 85.0492 178.974 86.6787 178.692C93.7702 177.464 96.4415 170.962 99.1369 164.384C103.218 154.425 101.072 135.177 98.0607 124.258C92.1203 102.72 91.5582 86.3592 98.8451 72.9159C103.91 63.5717 108.88 53.8475 115.664 47.1599C121.664 41.2438 135.355 46.7179 137.696 48.3174C140.715 50.3798 141.548 53.8186 142.086 55.9889C143.74 62.6641 138.957 80.5511 133.732 101.301C131.555 109.949 129.733 114.615 128.328 122.504C126.922 130.392 125.833 141.319 125.651 152.157C125.294 173.415 127.477 185.858 128.613 189.502C133.08 203.846 158.667 221.587 165.9 224.819C168.693 226.067 171.932 224.789 174.957 223.939C178.328 222.993 180.954 220.52 182.793 217.547C186.657 211.301 181.841 198.598 170.632 177.44C160.95 159.165 155.1 150.651 154.69 137.379C154.174 120.664 159.203 114.495 167.159 104.675C168.954 102.46 170.064 101.788 171.08 101.345C173.001 100.506 175.518 101.295 178.109 102.796C180.812 104.36 181.75 107.609 182.081 111.177C183.451 125.956 176.292 133.917 177.03 139.167C178.219 147.635 187.368 155.404 191.111 157.446C195.296 159.731 200.638 158.127 202.966 155.545C207.243 150.799 210.556 143.558 210.137 130.878C209.536 112.665 197.623 95.7151 198.46 86.3592C199.769 71.7315 209.468 57.6177 214.473 50.9327C218.425 45.6553 224.482 43.6699 231.167 42.7355C233.861 42.359 236.433 43.769 238.925 45.555C243.967 49.1681 245.736 56.1569 250.362 77.8404C255.024 99.6923 250.753 111.33 247.237 123.314C244.176 133.751 238.038 152.884 234.393 166.236C228.903 186.351 228.573 194.723 228.941 197.238C230.194 205.818 238.029 212.583 242.007 215.256C243.77 216.442 246.025 216.429 248.092 216.338C253.187 216.111 257.878 210.215 262.554 203.774C269.186 194.639 268.783 187.006 268.036 170.177C267.696 162.535 266.725 154.475 267.332 143.553C268.101 129.743 270.464 120.319 272.112 117.102C276.369 108.791 287.213 101.806 293.324 100.885C297.203 100.3 300.853 104.21 304.147 107.219C307.607 110.381 308.831 114.457 309.399 117.605C310.518 123.808 302.11 135.387 296.098 146.425C285.552 165.786 289.34 173.974 291.103 178.587C291.902 180.675 294.99 181.199 297.773 181.59C302.283 182.222 306.835 178.763 310.409 174.829C315.831 168.86 316.876 153.982 319.504 147.081C322.574 139.019 334.673 135.621 337.133 135.487C343.428 135.145 350.48 145.82 355.13 149.54C360.065 150.422 365.852 147.784 371.383 143.87C373.67 142.079 374.902 140.684 376.172 139.247" stroke="#EFA960" stroke-width="11.8552" stroke-linecap="round"/>
<path d="M31.9764 169.596C32.688 168.065 39.5212 158.709 46.4963 152.363C50.9893 148.275 56.6645 148.221 60.9278 148.849C65.6762 149.547 75.5953 167.977 82.7284 177.811C83.5024 178.878 85.0492 178.974 86.6787 178.692C93.7702 177.464 96.4415 170.962 99.1369 164.384C103.218 154.425 101.072 135.177 98.0607 124.258C92.1203 102.72 91.5582 86.3592 98.8451 72.9159C103.91 63.5717 108.88 53.8475 115.664 47.1599C121.664 41.2438 135.355 46.7179 137.696 48.3174C140.715 50.3798 141.548 53.8186 142.086 55.9889C143.74 62.6641 138.957 80.5511 133.732 101.301C131.555 109.949 129.733 114.615 128.328 122.504C126.922 130.392 125.833 141.319 125.651 152.157C125.294 173.415 127.477 185.858 128.613 189.502C133.08 203.846 158.667 221.587 165.9 224.819C168.693 226.067 171.932 224.789 174.957 223.939C178.328 222.993 180.954 220.52 182.793 217.547C186.657 211.301 181.841 198.598 170.632 177.44C160.95 159.165 155.1 150.651 154.69 137.379C154.174 120.664 159.203 114.495 167.159 104.675C168.954 102.46 170.064 101.788 171.08 101.345C173.001 100.506 175.518 101.295 178.109 102.796C180.812 104.36 181.75 107.609 182.081 111.177C183.451 125.956 176.292 133.917 177.03 139.167C178.219 147.635 187.368 155.404 191.111 157.446C195.296 159.731 200.638 158.127 202.966 155.545C207.243 150.799 210.556 143.558 210.137 130.878C209.536 112.665 197.623 95.7151 198.46 86.3592C199.769 71.7315 209.468 57.6177 214.473 50.9327C218.425 45.6553 224.482 43.6699 231.167 42.7355C233.861 42.359 236.433 43.769 238.925 45.555C243.967 49.1681 245.736 56.1569 250.362 77.8404C255.024 99.6923 250.753 111.33 247.237 123.314C244.176 133.751 238.038 152.884 234.393 166.236C228.903 186.351 228.573 194.723 228.941 197.238C230.194 205.818 238.029 212.583 242.007 215.256C243.77 216.442 246.025 216.429 248.092 216.338C253.187 216.111 257.878 210.215 262.554 203.774C269.186 194.639 268.783 187.006 268.036 170.177C267.696 162.535 266.725 154.475 267.332 143.553C268.101 129.743 270.464 120.319 272.112 117.102C276.369 108.791 287.213 101.806 293.324 100.885C297.203 100.3 300.853 104.21 304.147 107.219C307.607 110.381 308.831 114.457 309.399 117.605C310.518 123.808 302.11 135.387 296.098 146.425C285.552 165.786 289.34 173.974 291.103 178.587C291.902 180.675 294.99 181.199 297.773 181.59C302.283 182.222 306.835 178.763 310.409 174.829C315.831 168.86 316.876 153.982 319.504 147.081C322.574 139.019 334.673 135.621 337.133 135.487C343.428 135.145 350.48 145.82 355.13 149.54C360.065 150.422 365.852 147.784 371.383 143.87C373.67 142.079 374.902 140.684 376.172 139.247" stroke="#F5889B" stroke-width="3.95174" stroke-linecap="round"/>
</g>
<defs>
<linearGradient id="paint0_linear_2063_925" x1="62.4522" y1="158.466" x2="389.03" y2="158.466" gradientUnits="userSpaceOnUse">
<stop stop-color="#EFA960"/>
<stop offset="0.482504" stop-color="#F5889B"/>
<stop offset="1" stop-color="#A081F5"/>
</linearGradient>
<clipPath id="clip0_2063_925">
<rect width="373.045" height="229.577" fill="white" transform="translate(20 20)"/>
</clipPath>
</defs>
</svg>
