<svg width="447" height="238" viewBox="0 0 447 238" fill="none" xmlns="http://www.w3.org/2000/svg">
<path d="M32.2387 62.5558C31.2991 56.0469 36.3477 50.2172 42.9241 50.2172H91.5908C98.2515 50.2172 103.323 56.1894 102.244 62.7621L91.2612 129.676C90.6456 133.426 88.1031 136.577 84.5672 137.971L58.0517 148.424C51.5705 150.979 44.402 146.818 43.4067 139.923L32.2387 62.5558Z" fill="url(#paint0_linear_2063_912)"/>
<path d="M121.158 28.8504C122.305 22.6544 128.492 18.7531 134.577 20.389L183.185 33.4566C189.315 35.1047 192.707 41.6603 190.512 47.6164L142.609 177.583C141.521 180.535 139.198 182.866 136.25 183.965L107.062 194.845C99.2017 197.775 91.1489 191.013 92.6754 182.764L121.158 28.8504Z" fill="url(#paint1_linear_2063_912)"/>
<path d="M234.03 93.782C233.687 87.3096 239.084 81.9957 245.55 82.4394L276.13 84.5378C282.667 84.9864 287.301 91.1081 285.958 97.5218L274.051 154.371C273.3 157.956 270.783 160.915 267.365 162.232L252.129 168.1C245.282 170.738 237.856 165.924 237.467 158.597L234.03 93.782Z" fill="url(#paint2_linear_2063_912)"/>
<path d="M361.926 61.9543C361.104 55.6206 365.929 49.961 372.313 49.772L403.523 48.8478C409.966 48.657 415.139 54.1171 414.601 60.54L408.308 135.715C408.02 139.149 406.111 142.239 403.168 144.033L389.017 152.657C382.346 156.723 373.699 152.577 372.692 144.829L361.926 61.9543Z" fill="url(#paint3_linear_2063_912)"/>
<path d="M367.993 171.944C368.47 177.013 365.34 181.727 360.483 183.254L290.62 205.225C282.826 207.676 275.239 200.916 276.778 192.892L303.822 51.8897C304.371 49.0259 306.056 46.506 308.492 44.9035L338.265 25.3197C345.066 20.8459 354.184 25.2228 354.947 33.3279L367.993 171.944Z" fill="url(#paint4_linear_2063_912)"/>
<path d="M220.663 200.147C220.203 206.634 214.155 211.246 207.778 209.972L159.611 200.348C153.161 199.06 149.352 192.352 151.551 186.152L178.167 111.114C179.404 107.626 182.341 105.015 185.95 104.195L213.943 97.8343C221.007 96.2291 227.616 101.898 227.104 109.124L220.663 200.147Z" fill="url(#paint5_linear_2063_912)"/>
<path d="M32.2387 72.5558C31.2991 66.0469 36.3477 60.2172 42.9241 60.2172H91.5908C98.2515 60.2172 103.323 66.1894 102.244 72.7621L91.2612 139.676C90.6456 143.426 88.1031 146.577 84.5672 147.971L58.0517 158.424C51.5705 160.979 44.402 156.818 43.4067 149.923L32.2387 72.5558Z" stroke="#1D1C1F" stroke-width="21.5924"/>
<path d="M121.159 38.8504C122.305 32.6544 128.492 28.7531 134.577 30.389L183.185 43.4566C189.315 45.1047 192.707 51.6603 190.512 57.6164L142.609 187.583C141.521 190.535 139.198 192.866 136.25 193.965L107.062 204.845C99.2018 207.775 91.1489 201.013 92.6754 192.764L121.159 38.8504Z" stroke="#1D1C1F" stroke-width="21.5924"/>
<path d="M234.03 103.782C233.687 97.3096 239.084 91.9957 245.55 92.4394L276.13 94.5378C282.667 94.9863 287.301 101.108 285.958 107.522L274.051 164.37C273.3 167.956 270.783 170.915 267.365 172.232L252.129 178.1C245.282 180.738 237.856 175.924 237.467 168.597L234.03 103.782Z" stroke="#1D1C1F" stroke-width="21.5924"/>
<path d="M361.926 71.9543C361.104 65.6206 365.929 59.961 372.313 59.772L403.523 58.8478C409.966 58.657 415.139 64.1171 414.601 70.54L408.308 145.715C408.02 149.149 406.111 152.239 403.168 154.033L389.017 162.657C382.346 166.723 373.699 162.577 372.692 154.829L361.926 71.9543Z" stroke="#1D1C1F" stroke-width="21.5924"/>
<path d="M367.993 181.944C368.47 187.013 365.34 191.727 360.483 193.254L290.62 215.225C282.826 217.676 275.239 210.916 276.778 202.892L303.822 61.8897C304.371 59.0259 306.056 56.506 308.492 54.9035L338.265 35.3197C345.066 30.8459 354.184 35.2228 354.946 43.3279L367.993 181.944Z" stroke="#1D1C1F" stroke-width="21.5924"/>
<path d="M220.663 210.147C220.203 216.634 214.155 221.246 207.778 219.972L159.611 210.348C153.161 209.06 149.352 202.352 151.551 196.152L178.167 121.114C179.404 117.626 182.341 115.015 185.95 114.195L213.943 107.834C221.007 106.229 227.616 111.898 227.105 119.124L220.663 210.147Z" stroke="#1D1C1F" stroke-width="21.5924"/>
<path d="M32.2387 59.6002C31.2991 53.0912 36.3477 47.2615 42.9241 47.2615H91.5908C98.2515 47.2615 103.323 53.2337 102.244 59.8064L91.2612 126.72C90.6456 130.471 88.1031 133.621 84.5672 135.015L58.0517 145.468C51.5705 148.023 44.402 143.862 43.4067 136.967L32.2387 59.6002Z" stroke="#1D1C1F" stroke-width="21.5924"/>
<path d="M121.159 25.8947C122.305 19.6987 128.492 15.7974 134.577 17.4333L183.185 30.5009C189.315 32.149 192.707 38.7046 190.512 44.6607L142.609 174.627C141.521 177.579 139.198 179.91 136.25 181.009L107.062 191.889C99.2018 194.819 91.1489 188.057 92.6754 179.808L121.159 25.8947Z" stroke="#1D1C1F" stroke-width="21.5924"/>
<path d="M234.03 90.8263C233.687 84.3539 239.084 79.04 245.55 79.4837L276.13 81.5821C282.667 82.0307 287.301 88.1524 285.958 94.5661L274.051 151.415C273.3 155 270.783 157.96 267.365 159.276L252.129 165.145C245.282 167.782 237.856 162.968 237.467 155.642L234.03 90.8263Z" stroke="#1D1C1F" stroke-width="21.5924"/>
<path d="M361.926 58.9986C361.104 52.6649 365.929 47.0053 372.313 46.8163L403.523 45.8921C409.966 45.7013 415.139 51.1614 414.601 57.5843L408.308 132.759C408.02 136.193 406.111 139.284 403.168 141.077L389.017 149.702C382.346 153.767 373.699 149.621 372.692 141.873L361.926 58.9986Z" stroke="#1D1C1F" stroke-width="21.5924"/>
<path d="M367.993 168.988C368.47 174.057 365.34 178.771 360.483 180.299L290.62 202.269C282.826 204.72 275.239 197.961 276.778 189.937L303.822 48.934C304.371 46.0702 306.056 43.5504 308.492 41.9479L338.265 22.364C345.066 17.8902 354.184 22.2671 354.946 30.3722L367.993 168.988Z" stroke="#1D1C1F" stroke-width="21.5924"/>
<path d="M220.663 197.191C220.203 203.678 214.155 208.29 207.778 207.016L159.611 197.393C153.161 196.104 149.352 189.396 151.551 183.197L178.167 108.158C179.404 104.671 182.341 102.06 185.95 101.24L213.943 94.8786C221.007 93.2734 227.616 98.9428 227.105 106.169L220.663 197.191Z" stroke="#1D1C1F" stroke-width="21.5924"/>
<path d="M32.2387 59.6002C31.2991 53.0912 36.3477 47.2615 42.9241 47.2615H91.5908C98.2515 47.2615 103.323 53.2337 102.244 59.8064L91.2612 126.72C90.6456 130.471 88.1031 133.621 84.5672 135.015L58.0517 145.468C51.5705 148.023 44.402 143.862 43.4067 136.967L32.2387 59.6002Z" stroke="#EFA960" stroke-width="12.9554"/>
<path d="M121.159 25.8947C122.305 19.6987 128.492 15.7974 134.577 17.4333L183.185 30.5009C189.315 32.149 192.707 38.7046 190.512 44.6607L142.609 174.627C141.521 177.579 139.198 179.91 136.25 181.009L107.062 191.889C99.2018 194.819 91.1489 188.057 92.6754 179.808L121.159 25.8947Z" stroke="#EFA960" stroke-width="12.9554"/>
<path d="M234.03 90.8263C233.687 84.3539 239.084 79.04 245.55 79.4837L276.13 81.5821C282.667 82.0307 287.301 88.1524 285.958 94.5661L274.051 151.415C273.3 155 270.783 157.96 267.365 159.276L252.129 165.145C245.282 167.782 237.856 162.968 237.467 155.642L234.03 90.8263Z" stroke="#EFA960" stroke-width="12.9554"/>
<path d="M361.926 58.9986C361.104 52.6649 365.929 47.0053 372.313 46.8163L403.523 45.8921C409.966 45.7013 415.139 51.1614 414.601 57.5843L408.308 132.759C408.02 136.193 406.111 139.284 403.168 141.077L389.017 149.702C382.346 153.767 373.699 149.621 372.692 141.873L361.926 58.9986Z" stroke="#EFA960" stroke-width="12.9554"/>
<path d="M367.993 168.988C368.47 174.057 365.34 178.771 360.483 180.299L290.62 202.269C282.826 204.72 275.239 197.961 276.778 189.937L303.822 48.934C304.371 46.0702 306.056 43.5504 308.492 41.9479L338.265 22.364C345.066 17.8902 354.184 22.2671 354.946 30.3722L367.993 168.988Z" stroke="#EFA960" stroke-width="12.9554"/>
<path d="M220.663 197.191C220.203 203.678 214.155 208.29 207.778 207.016L159.611 197.393C153.161 196.104 149.352 189.396 151.551 183.197L178.167 108.158C179.404 104.671 182.341 102.06 185.95 101.24L213.943 94.8786C221.007 93.2734 227.616 98.9428 227.105 106.169L220.663 197.191Z" stroke="#EFA960" stroke-width="12.9554"/>
<path d="M32.2387 59.6002C31.2991 53.0912 36.3477 47.2615 42.9241 47.2615H91.5908C98.2515 47.2615 103.323 53.2337 102.244 59.8064L91.2612 126.72C90.6456 130.471 88.1031 133.621 84.5672 135.015L58.0517 145.468C51.5705 148.023 44.402 143.862 43.4067 136.967L32.2387 59.6002Z" stroke="#F5889B" stroke-width="4.31848"/>
<path d="M121.159 25.8947C122.305 19.6987 128.492 15.7974 134.577 17.4333L183.185 30.5009C189.315 32.149 192.707 38.7046 190.512 44.6607L142.609 174.627C141.521 177.579 139.198 179.91 136.25 181.009L107.062 191.889C99.2018 194.819 91.1489 188.057 92.6754 179.808L121.159 25.8947Z" stroke="#F5889B" stroke-width="4.31848"/>
<path d="M234.03 90.8263C233.687 84.3539 239.084 79.04 245.55 79.4837L276.13 81.5821C282.667 82.0307 287.301 88.1524 285.958 94.5661L274.051 151.415C273.3 155 270.783 157.96 267.365 159.276L252.129 165.145C245.282 167.782 237.856 162.968 237.467 155.642L234.03 90.8263Z" stroke="#F5889B" stroke-width="4.31848"/>
<path d="M361.926 58.9986C361.104 52.6649 365.929 47.0053 372.313 46.8163L403.523 45.8921C409.966 45.7013 415.139 51.1614 414.601 57.5843L408.308 132.759C408.02 136.193 406.111 139.284 403.168 141.077L389.017 149.702C382.346 153.767 373.699 149.621 372.692 141.873L361.926 58.9986Z" stroke="#F5889B" stroke-width="4.31848"/>
<path d="M367.993 168.988C368.47 174.057 365.34 178.771 360.483 180.299L290.62 202.269C282.826 204.72 275.239 197.961 276.778 189.937L303.822 48.934C304.371 46.0702 306.056 43.5504 308.492 41.9479L338.265 22.364C345.066 17.8902 354.184 22.2671 354.946 30.3722L367.993 168.988Z" stroke="#F5889B" stroke-width="4.31848"/>
<path d="M220.663 197.191C220.203 203.678 214.155 208.29 207.778 207.016L159.611 197.393C153.161 196.104 149.352 189.396 151.551 183.197L178.167 108.158C179.404 104.671 182.341 102.06 185.95 101.24L213.943 94.8786C221.007 93.2734 227.616 98.9428 227.105 106.169L220.663 197.191Z" stroke="#F5889B" stroke-width="4.31848"/>
<defs>
<linearGradient id="paint0_linear_2063_912" x1="50.9199" y1="131.42" x2="431.776" y2="131.42" gradientUnits="userSpaceOnUse">
<stop stop-color="#EFA960"/>
<stop offset="0.482504" stop-color="#F5889B"/>
<stop offset="1" stop-color="#A081F5"/>
</linearGradient>
<linearGradient id="paint1_linear_2063_912" x1="50.9199" y1="131.42" x2="431.776" y2="131.42" gradientUnits="userSpaceOnUse">
<stop stop-color="#EFA960"/>
<stop offset="0.482504" stop-color="#F5889B"/>
<stop offset="1" stop-color="#A081F5"/>
</linearGradient>
<linearGradient id="paint2_linear_2063_912" x1="50.9199" y1="131.42" x2="431.776" y2="131.42" gradientUnits="userSpaceOnUse">
<stop stop-color="#EFA960"/>
<stop offset="0.482504" stop-color="#F5889B"/>
<stop offset="1" stop-color="#A081F5"/>
</linearGradient>
<linearGradient id="paint3_linear_2063_912" x1="50.9199" y1="131.42" x2="431.776" y2="131.42" gradientUnits="userSpaceOnUse">
<stop stop-color="#EFA960"/>
<stop offset="0.482504" stop-color="#F5889B"/>
<stop offset="1" stop-color="#A081F5"/>
</linearGradient>
<linearGradient id="paint4_linear_2063_912" x1="50.9199" y1="131.42" x2="431.776" y2="131.42" gradientUnits="userSpaceOnUse">
<stop stop-color="#EFA960"/>
<stop offset="0.482504" stop-color="#F5889B"/>
<stop offset="1" stop-color="#A081F5"/>
</linearGradient>
<linearGradient id="paint5_linear_2063_912" x1="50.9199" y1="131.42" x2="431.776" y2="131.42" gradientUnits="userSpaceOnUse">
<stop stop-color="#EFA960"/>
<stop offset="0.482504" stop-color="#F5889B"/>
<stop offset="1" stop-color="#A081F5"/>
</linearGradient>
</defs>
</svg>
